<?xml version="1.0" encoding="utf-8"?>
<!-- Generator: Adobe Illustrator 25.2.3, SVG Export Plug-In . SVG Version: 6.00 Build 0)  -->
<svg version="1.1" id="Layer_1" xmlns="http://www.w3.org/2000/svg" xmlns:xlink="http://www.w3.org/1999/xlink" x="0px" y="0px"
	 viewBox="0 0 228 51" style="enable-background:new 0 0 228 51;" xml:space="preserve">
<style type="text/css">
	.st0{fill-rule:evenodd;clip-rule:evenodd;fill:#FFFFFF;}
</style>
<g id="Symbols">
	<g id="logo-full" transform="translate(0.000000, -11.000000)">
		<g id="acfas-no-tag" transform="translate(0.000000, 11.000000)">
			<path id="Shape" class="st0" d="M13.8,5.1c-1.8,0.5-3.6,1.2-5.3,2C8.4,7.4,9.1,7.2,9.3,7.2c1.1-0.4,2.2-0.7,3.4-1
				c1-0.1,2-0.4,2.3,0.3c0.2,1,0.6,2.4,1.1,2.8c0.6,0.4,1.3,0.5,2.1,0.4l0,10.6l1.5-0.3l0-10.3c0.7,0.1,1.4-0.1,2.1-0.4
				c0.5-0.4,0.9-1.8,1.1-2.8c0.3-0.7,1.3-0.5,2.3-0.3c1.1,0.2,2.3,0.5,3.4,1c0.2,0,0.9,0.2,0.8-0.1c-1.7-0.8-3.5-1.5-5.3-2
				C23.2,5,22.3,5,22,5.8c-0.5,1.1,0.1,2.6-1,3.3c-0.4,0.1-0.9,0.2-1.3,0l0-1.4c0.4-0.3,0.7-0.7,0.7-1.2c0-0.8-0.7-1.5-1.5-1.5
				c-0.4,0-0.8,0.2-1,0.4s-0.4,0.6-0.4,1c0,0.5,0.3,1,0.7,1.2l0,1.4c-0.4,0.1-0.9,0.1-1.3-0.1c-1.1-0.8-0.5-2.3-1-3.3
				C15.5,5,14.6,5,13.8,5.1 M21.7,36.2c0.9-0.3,1.7-0.6,2.4-1.1c0-0.2-0.3-0.3-0.3-0.3c-2.2-0.3-5.1,1.5-5.1,1.5
				c0.1,0.3,0.2,0.7,0.3,1C19.9,37.3,20.6,36.5,21.7,36.2L21.7,36.2z M23.9,36.4c-2-0.2-4.7,1.3-4.7,1.3c0.1,0.3,0.2,0.6,0.3,0.9
				c0.8,0.1,1.4-0.7,2.5-0.9c0.8-0.2,1.6-0.6,2.3-1C24.2,36.5,24,36.4,23.9,36.4L23.9,36.4z M21.6,34.6c0.9-0.2,1.8-0.6,2.7-1.1
				c0-0.2-0.2-0.3-0.2-0.3c-2.4-0.2-6,1-6,1s0.3,1.2,0.5,1.5C19.4,35.7,20.4,34.8,21.6,34.6L21.6,34.6z M20.6,32.7
				c2.5-0.5,3-1.6,3-2.6c-0.1-1.1-0.8-2-1.8-2.4l-1.9,0.3c0.7,0.2,1.3,0.6,1.7,1.1c0.7,0.7,0.5,1.9-1,2.3c-0.8,0.2-1.6,0.4-2.4,0.5
				c-1.5,0.3-2,1.1-1.7,2.6c0.3,1.4,0.8,2.8,1.3,4.2c-0.6,0-1.1,0.5-1.1,1.1c0,0.6,0.5,1.1,1.2,1.1c0.5,0,0.9-0.3,1.1-0.8L19,40
				c0.5-1.5-1-3.6-1.5-5.5c-0.1-0.3-0.1-0.6,0-0.9C17.9,33.1,18.4,33.2,20.6,32.7L20.6,32.7z M18.1,31.6l1.5-0.3l0-3.2l-1.6,0.3
				V31.6z M17.6,28.2c3.1-0.8,8.1-1,8.1-3.8c0-1.8-1.6-2.2-3-2.8L20,22.4c0.8,0.2,3.2,1,3.5,1.5c0.4,0.5,0.2,1.1-0.7,1.4
				C21.2,26,18,26.5,16.5,27c-1.5,0.5-2.7,1.6-2.6,3.1c0.1,1.5,1.3,2.1,2.6,2.4c0.1-0.2,0.3-0.4,0.6-0.5c0.3-0.1,0.5-0.2,0.8-0.3
				c-0.8-0.1-1.6-0.5-2.1-1.1C15.4,30.1,15,28.9,17.6,28.2L17.6,28.2z M18.1,26.3l1.6-0.4v-3.4l-1.6,0.4L18.1,26.3z M21.1,21.7
				c1.8-0.4,3.6-1.1,5.3-1.9c0.9-0.4,1.3-1.5,0.9-2.4c-0.7-1.4-2.6-1.7-4-1.2c-0.6,0.2-1.5,0.7-1.3,1.3c0.3,0.8,2.6,0.7,3.7,0.2
				c0.1,0.1,0.1,0,0.1,0.1C25.7,18,25.3,18,25,18.2c0.1,0.7-0.7,1-1.2,1.2c-2.7,1.1-5.8,1.3-8.6,2.2c-1.5,0.6-3.2,1.4-3,3.4
				c0.3,1.4,1.5,1.8,2.7,2.3c0.3-0.2,0.6-0.4,1-0.5c0.5-0.2,1.5-0.4,1.5-0.4c-1-0.1-1.9-0.4-2.8-0.9c-0.3-0.2-0.4-0.4-0.5-0.7
				c0-0.3,0.1-0.6,0.3-0.8C15.4,23,18.2,22.4,21.1,21.7z M12.7,8c-0.8,0.3-1.7,0.5-2.1,1.5c1.7,0.3,2.7-1,4.2-1.5
				c-0.1-0.3-0.1-0.5-0.2-0.8C14,7.5,13.4,7.8,12.7,8L12.7,8z M9.1,8.6c0.8,0,1.7-0.2,2.5-0.5c1-0.4,2-0.8,3-1.3
				c-0.2-0.2-0.4-0.2-0.6-0.2c-1.8,0-3.5,0.6-4.8,1.7C9.1,8.5,8.9,8.5,9.1,8.6L9.1,8.6z M14.8,8.3c-1.2,0.4-2.3,1.2-3.1,2.1
				c0.6,0.2,1.3,0.1,1.8-0.3c0.5-0.4,1.1-0.8,1.7-1C15.1,8.8,15,8.6,14.8,8.3L14.8,8.3z M14.5,13.4c0.1,0.4-0.3,0.8,0,1.1
				c1.2-0.6,2.3-1.2,3.3-1.8c0-0.3,0-0.5,0-0.8C16.7,12.4,15.5,12.6,14.5,13.4L14.5,13.4z M12.6,14.1c0.9-0.4,1.8-1,2.6-1.5
				c-0.5,0-0.7-0.5-0.6-0.6c-0.5,0.1-0.7,0.2-1.3,0.3C12.8,12.7,12.5,13.4,12.6,14.1L12.6,14.1z M17.8,11.5c0.1-0.3,0.2-0.7,0.1-1.1
				c-0.3,0-0.5,0-0.8,0c-0.6,0.4-1.2,0.8-1.9,1.2c0,0-0.1,0.1-0.1,0.2c0,0.1,0,0.2,0,0.2c0,0.1,0.1,0.1,0.2,0.2
				C16.1,12.2,17,11.9,17.8,11.5L17.8,11.5z M12.8,11.9c1.4-0.2,2.8-0.7,3.9-1.6c-0.5-0.1-0.5-0.2-0.9-0.5c-0.2-0.2-0.3-0.2-0.3-0.4
				c-1,0.4-1.9,1.1-2.6,2C12.8,11.6,12.6,11.8,12.8,11.9L12.8,11.9z M12.8,12.3c-0.1-0.1-1.3-0.1-0.1-1.3c-0.7,0.3-1.3,0.7-1.9,1.1
				c-0.2,0.4-0.7,0.9-0.4,1.4C11.3,13.2,12.1,12.8,12.8,12.3L12.8,12.3z M10.7,16.8c-0.4,0.6-0.4,1.5,0,2.1c0.6,0.9,2.7,1.7,4.2,2.3
				c0.8-0.3,1.6-0.4,2.5-0.7c-1.7-0.6-3.4-0.9-4.8-2.2c-0.1-0.4-0.5-0.5-0.8-0.7c0.1-0.1,0.1-0.1,0.1-0.1c1.1,0.5,2.3,0.6,3.4,0.3
				c0.1,0,0.3-0.1,0.3-0.3s0.1-0.3,0-0.4c-0.4-0.6-0.9-1-1.5-1.2C13,15.8,11.5,15.8,10.7,16.8L10.7,16.8z M25,11.5
				c-0.6-0.9-1.5-1.6-2.6-2c-0.1,0.1-0.1,0.1-0.3,0.4c-0.4,0.3-0.4,0.4-0.9,0.5c1.1,0.9,2.5,1.5,3.9,1.6
				C25.2,11.8,25.1,11.6,25,11.5L25,11.5z M22.6,9.1c0.6,0.3,1.2,0.6,1.7,1c0.5,0.4,1.2,0.5,1.8,0.3c-0.8-1-1.9-1.7-3.1-2.1
				C22.8,8.6,22.8,8.8,22.6,9.1z M22.7,12.5c0.8,0.6,1.7,1.1,2.6,1.5c0.1-0.7-0.2-1.4-0.7-1.8c-0.5-0.1-0.7-0.2-1.3-0.3
				C23.3,12.1,23.1,12.5,22.7,12.5L22.7,12.5z M23.4,14.5c0.3-0.3,0-0.7,0-1.1c-1.1-0.8-2.2-1-3.4-1.4c0,0.3,0,0.5,0,0.8
				C21.1,13.3,22.2,13.9,23.4,14.5z M22.7,11.6c-0.7-0.3-1.3-0.7-1.9-1.2c-0.3,0-0.5,0-0.8,0c-0.1,0.4,0,0.7,0.1,1.1
				c0.8,0.4,1.7,0.6,2.6,0.6c0.1,0,0.1-0.1,0.2-0.2c0-0.1,0-0.2,0-0.2C22.8,11.7,22.7,11.6,22.7,11.6z M25,12.3
				c0.7,0.5,1.6,0.9,2.4,1.1c0.3-0.5-0.2-1-0.4-1.4c-0.8-0.4-1.2-0.8-1.9-1.1C26.3,12.2,25.1,12.2,25,12.3L25,12.3z M25.6,10.8
				c1.2,0.6,2.4,1.5,3.7,1.9c0.1-0.3,0-0.7-0.3-1c-1-0.6-2.6-1.6-2.8-1.6c0.2,0.2,0.2,0.4,0.1,0.6C26.4,10.8,25.8,10.8,25.6,10.8
				L25.6,10.8z M23.1,8c1.5,0.5,2.5,1.8,4.2,1.5c-0.4-0.9-1.3-1.2-2.2-1.5c-0.7-0.2-1.3-0.5-1.9-0.8C23.2,7.5,23.1,7.7,23.1,8
				L23.1,8z M26.3,8.1c0.8,0.3,1.6,0.4,2.5,0.5c0.1-0.1,0-0.2,0-0.2c-1.3-1.1-3-1.8-4.8-1.7c-0.2,0-0.5,0-0.6,0.2
				C24.2,7.3,25.2,7.8,26.3,8.1L26.3,8.1z M3.7,10.2c0,0.4,0.9,0.2,1.2,0.1C6,10.1,7.1,9.6,8.2,9c0.3-0.1,0.3-0.2,0.5-0.4
				c0-0.3,0.2-0.5,0.7-0.9c-1.6,0-3.3,0.9-4.8,1.8C4.2,9.7,3.7,10,3.7,10.2z M6,10.4c-0.3,0.4-0.7,0.6-0.7,1.1
				c1.7-0.6,3.3-1.4,4.9-2.2c0-0.1,0.4-0.4,0.3-0.5C10,8.9,9.5,9,9,9C8,9.5,7,10,6,10.4L6,10.4z M7.3,11.1c-0.3,0.4-0.6,0.7-0.6,1.1
				c0.9-0.4,1.8-0.8,2.6-1.3c0.4-0.2,0.8-0.5,1.2-0.7c0.3-0.2,0.8-0.4,0.5-0.4c-0.2,0-0.7,0.1-0.8-0.1L7.3,11.1z M8.7,11.7
				c-0.2,0.3-0.3,0.6-0.2,1c1.4-0.4,2.5-1.3,3.7-1.9c-0.2,0-0.8,0-0.9-0.1c-0.1-0.2,0-0.5,0.1-0.6C11.4,10.1,9.7,11.1,8.7,11.7z
				 M20.5,44.1c0.9-0.7,0.9-1.2,0.8-1.7c-0.3-0.6-0.6-1.2-0.8-1.9c-0.1-0.3-0.1-0.6-0.1-0.6l-1,0.2c-0.1,0.7-0.8,1.2-1.5,1.2
				c-0.9,0-1.6-0.7-1.6-1.6c0-0.6,0.3-1.1,0.9-1.4l-0.9-2.7c0,0-0.4,3-1.7,4.7c-1.3,1.7-2,3.3-2.3,3.6c-0.8,0.8-1.7,1.4-2.7,1.7
				c-0.4,0.2-0.7,0.6-0.5,1.1c0.1,0.3,1,0.4,1.4,0.4c0.8,0.1,1.6,0.1,2.4-0.2c1.2-0.4,2.4-2,3.9-2.4C18.2,44.4,19.6,44.8,20.5,44.1z
				 M23.8,38.5c0.4-0.3,0-0.7-0.3-0.7c-1.1,0-3.9,1.3-3.9,1.3c0,0.2,0,0.4,0,0.6C20.2,39.9,23.4,38.5,23.8,38.5z M26.1,37.6
				c0.6-0.2,1.2-0.4,1.7-0.8c0-0.1-0.1-0.1-0.1-0.1c-1.6-0.2-4.2,0.8-4.2,0.8c0.4,0,0.8,0.4,0.9,0.8C24.7,38.4,25.5,37.8,26.1,37.6z
				 M28.2,35.7c0.2-0.1,1.1-0.4,0.9-0.8c-0.2-0.2-0.7-0.1-0.9-0.1c-1.7,0.2-3,0.4-4.4,1.2c0.6,0,0.8,0.1,1,0.3
				c0.2,0.1,0.4,0.1,0.6,0C26.3,36.2,27.2,36,28.2,35.7L28.2,35.7z M28.8,34c0.2-0.1,1.2-0.5,0.9-0.8c-0.2-0.2-0.8-0.2-1-0.1
				c-1.8,0.2-3.8,0.4-5.3,1.4c0.6,0,0.9,0.1,1.1,0.4c0.2,0.1,0.3,0.1,0.6,0C26.4,34.6,27.6,34.4,28.8,34L28.8,34z M29.2,32.2
				c0.3-0.1,1.3-0.5,1-0.9c-0.2-0.3-0.8-0.2-1.1-0.1c-2,0.2-4.1,0.5-5.6,1.6c0.6,0,1,0.1,1.2,0.4c0.2,0.1,0.4,0.1,0.7,0
				C26.7,32.9,28,32.6,29.2,32.2L29.2,32.2z M28.6,11c0.8,0.5,1.7,0.9,2.6,1.3c0-0.5-0.4-0.7-0.7-1.1l-2.9-1.4
				c-0.2,0.2-0.6,0.2-0.8,0.1c-0.4,0,0.2,0.2,0.5,0.4C27.7,10.5,28.2,10.7,28.6,11L28.6,11z M27.7,9.3c1.6,0.8,3.2,1.6,4.9,2.2
				c0-0.5-0.4-0.7-0.7-1.1c-1-0.4-2-0.9-3-1.4c-0.5,0-1,0-1.5-0.1C27.3,8.9,27.6,9.2,27.7,9.3L27.7,9.3z M32.9,10.4
				c0.2,0.1,1.2,0.3,1.2-0.1c0-0.3-0.5-0.5-0.7-0.7c-1.5-0.9-3.2-1.8-4.8-1.8c0.5,0.4,0.7,0.6,0.7,0.9c0.1,0.2,0.2,0.2,0.5,0.4
				C30.7,9.6,31.8,10.1,32.9,10.4L32.9,10.4z M0,2.8C6.1,1,12.5,0.1,18.9,0c6.5,0.1,13,1.1,19.2,2.8v29.3c0,3,0.3,18.5-18.9,18.6v0
				c0,0-0.1,0-0.1,0l0,0h0l0,0h0c0,0-0.1,0-0.1,0v0C-0.3,50.7,0,35.1,0,32.2L0,2.8z"/>
			<path id="Shape_1_" class="st0" d="M224.4,30.9c0.1,0,0.2,0,0.3-0.1c0.1-0.1,0.1-0.2,0.1-0.3c0-0.1,0-0.2-0.1-0.3
				c-0.1-0.1-0.2-0.1-0.4-0.1h-0.3v0.8 M223.2,29.4h1.4c0.3,0,0.6,0.1,0.9,0.2c0.3,0.2,0.4,0.5,0.4,0.9s-0.2,0.6-0.5,0.8l0.6,1.2
				H225l-0.5-0.9h-0.5v0.9h-0.9V29.4z M224.4,33.3c0.6,0,1.2-0.2,1.6-0.6c0.8-1,0.8-2.5,0-3.5c-0.4-0.4-1-0.7-1.6-0.6
				c-0.3,0-0.6,0.1-0.9,0.2c-0.5,0.2-1,0.7-1.2,1.2c-0.2,0.6-0.2,1.3,0,2c0.2,0.6,0.6,1,1.2,1.2C223.8,33.3,224.1,33.3,224.4,33.3
				L224.4,33.3z M224.4,34.1c-0.4,0-0.8-0.1-1.2-0.2c-0.4-0.1-0.7-0.4-1-0.7c-0.3-0.3-0.5-0.6-0.7-1c-0.3-0.8-0.3-1.7,0-2.5
				c0.2-0.4,0.4-0.7,0.7-1c0.3-0.3,0.6-0.5,1-0.7c0.4-0.2,0.8-0.2,1.2-0.2c0.4,0,0.8,0.1,1.2,0.2c0.4,0.2,0.7,0.4,1,0.7
				c0.3,0.3,0.5,0.6,0.7,1c0.3,0.8,0.3,1.7,0,2.5c-0.2,0.4-0.4,0.7-0.7,1c-0.3,0.3-0.6,0.5-1,0.7C225.3,34,224.9,34.1,224.4,34.1
				L224.4,34.1z M215.3,36.6c0.3,0.2,0.7,0.4,1,0.6c0.3,0.1,0.6,0.2,1,0.2c0.3,0,0.5,0,0.7-0.2c0.2-0.1,0.2-0.3,0.2-0.5
				c0-0.1,0-0.2-0.1-0.3c-0.1-0.1-0.2-0.2-0.4-0.3c-0.2-0.1-0.3-0.2-0.5-0.2l-0.6-0.2c-0.2-0.1-0.5-0.2-0.7-0.3
				c-0.2-0.1-0.5-0.3-0.7-0.5c-0.2-0.2-0.4-0.4-0.5-0.6c-0.1-0.3-0.2-0.6-0.2-0.8c0-0.3,0.1-0.7,0.2-1c0.1-0.3,0.3-0.6,0.6-0.8
				c0.3-0.2,0.6-0.4,0.9-0.5c0.4-0.1,0.8-0.2,1.2-0.2c0.5,0,1.1,0.1,1.6,0.3c0.4,0.2,0.8,0.4,1.2,0.7l-1,1.4
				c-0.3-0.2-0.5-0.4-0.8-0.5c-0.3-0.1-0.5-0.2-0.8-0.2c-0.6,0-0.9,0.2-0.9,0.6c0,0.1,0,0.2,0.1,0.3c0.1,0.1,0.2,0.2,0.3,0.2
				c0.2,0.1,0.3,0.2,0.5,0.2l0.6,0.2c0.2,0.1,0.5,0.2,0.7,0.3c0.2,0.1,0.5,0.3,0.7,0.4c0.4,0.4,0.7,1,0.7,1.6c0,0.3-0.1,0.7-0.2,1
				c-0.1,0.3-0.3,0.6-0.6,0.8c-0.3,0.2-0.6,0.4-1,0.5c-0.4,0.1-0.9,0.2-1.4,0.2c-0.5,0-1.1-0.1-1.6-0.3c-0.5-0.2-1-0.4-1.4-0.8
				L215.3,36.6z M206,31.2h1.9l0.2,1h0.1c0.3-0.3,0.7-0.6,1.1-0.8c0.4-0.2,0.9-0.4,1.4-0.4c0.7-0.1,1.4,0.3,1.8,0.8
				c0.4,0.7,0.6,1.5,0.6,2.3v4.8h-2.3v-4.5c0-0.4,0-0.8-0.2-1.2c-0.2-0.2-0.4-0.3-0.7-0.3c-0.3,0-0.5,0.1-0.7,0.2
				c-0.2,0.2-0.5,0.3-0.7,0.6v5.2H206V31.2z M199.3,35.1c0,0.6,0.1,1.1,0.4,1.6c0.2,0.4,0.6,0.6,1.1,0.6c0.4,0,0.8-0.2,1.1-0.6
				c0.5-1,0.5-2.2,0-3.2c-0.2-0.4-0.6-0.6-1.1-0.6c-0.4,0-0.8,0.2-1.1,0.6C199.4,34,199.3,34.5,199.3,35.1L199.3,35.1z M196.9,35.1
				c0-0.6,0.1-1.2,0.3-1.7c0.2-0.5,0.5-0.9,0.8-1.3c0.3-0.3,0.8-0.6,1.2-0.8c0.5-0.2,0.9-0.3,1.4-0.3c0.5,0,1,0.1,1.4,0.3
				c0.4,0.2,0.9,0.4,1.2,0.8c0.4,0.4,0.6,0.8,0.8,1.3c0.4,1.1,0.4,2.3,0,3.4c-0.2,0.5-0.5,0.9-0.8,1.3c-0.3,0.3-0.8,0.6-1.2,0.8
				c-0.4,0.2-0.9,0.3-1.4,0.3c-0.5,0-1-0.1-1.4-0.3c-0.5-0.2-0.9-0.4-1.2-0.8c-0.4-0.4-0.6-0.8-0.8-1.3
				C197,36.2,196.9,35.7,196.9,35.1L196.9,35.1z M193.9,34.3c0-0.4-0.1-0.8-0.3-1.1c-0.2-0.3-0.6-0.5-1-0.4c-0.4,0-0.7,0.1-1,0.4
				c-0.3,0.3-0.5,0.7-0.5,1.1H193.9z M188.9,35.1c0-0.6,0.1-1.2,0.3-1.7c0.2-0.5,0.5-0.9,0.8-1.3c0.3-0.3,0.7-0.6,1.2-0.8
				c0.4-0.2,0.9-0.3,1.4-0.3c0.5,0,1,0.1,1.4,0.3c0.4,0.2,0.8,0.4,1,0.8c0.3,0.3,0.5,0.7,0.6,1.2c0.1,0.5,0.2,1,0.2,1.5
				c0,0.2,0,0.4,0,0.6c0,0.2,0,0.3-0.1,0.4h-4.6c0.1,0.5,0.3,1,0.7,1.3c0.4,0.3,0.8,0.4,1.3,0.4c0.6,0,1.2-0.2,1.7-0.5l0.8,1.4
				c-0.4,0.3-0.8,0.5-1.3,0.6c-0.5,0.2-0.9,0.2-1.4,0.2c-0.5,0-1-0.1-1.5-0.3c-0.5-0.2-0.9-0.4-1.2-0.8c-0.4-0.4-0.6-0.8-0.8-1.3
				C189,36.2,188.9,35.7,188.9,35.1z M184.2,35.1c0.3,0,0.6-0.1,0.8-0.3c0.2-0.3,0.3-0.6,0.3-1c0-0.3-0.1-0.7-0.3-0.9
				c-0.2-0.2-0.5-0.3-0.8-0.3c-0.3,0-0.6,0.1-0.8,0.3c-0.2,0.3-0.3,0.6-0.3,0.9c0,0.4,0.1,0.7,0.3,1C183.7,35,183.9,35.1,184.2,35.1
				z M180.8,40.3c0-0.7,0.5-1.3,1.1-1.6v-0.1c-0.2-0.1-0.4-0.3-0.5-0.5c-0.3-0.5-0.3-1.1,0-1.6c0.2-0.3,0.4-0.5,0.6-0.6v-0.1
				c-0.3-0.2-0.5-0.5-0.7-0.8c-0.2-0.4-0.3-0.8-0.3-1.2c0-0.4,0.1-0.8,0.3-1.2c0.2-0.3,0.4-0.6,0.7-0.9c0.3-0.2,0.7-0.4,1-0.5
				c0.4-0.1,0.8-0.2,1.2-0.2c0.4,0,0.8,0.1,1.2,0.2h2.8v1.7H187c0.1,0.1,0.1,0.3,0.2,0.4c0,0.2,0.1,0.4,0.1,0.6
				c0,0.4-0.1,0.8-0.2,1.2c-0.1,0.3-0.4,0.6-0.6,0.8c-0.3,0.2-0.6,0.4-1,0.5c-0.4,0.1-0.8,0.2-1.2,0.2c-0.3,0-0.6-0.1-0.9-0.2
				c-0.1,0.1-0.2,0.2-0.2,0.2c0,0.1-0.1,0.2-0.1,0.3c0,0.2,0.1,0.4,0.3,0.4c0.3,0.1,0.6,0.2,0.9,0.1h1.2c0.8,0,1.5,0.1,2.2,0.5
				c0.5,0.3,0.8,0.9,0.8,1.5c0,0.4-0.1,0.8-0.3,1.1c-0.2,0.4-0.5,0.7-0.9,0.9c-0.4,0.3-0.9,0.5-1.4,0.6c-0.6,0.1-1.2,0.2-1.8,0.2
				c-0.4,0-0.9,0-1.3-0.1c-0.4-0.1-0.7-0.2-1-0.4c-0.3-0.1-0.5-0.3-0.7-0.6C180.9,40.9,180.8,40.6,180.8,40.3L180.8,40.3z
				 M182.7,39.9c0,0.3,0.2,0.6,0.5,0.7c0.4,0.2,0.8,0.2,1.2,0.2c0.4,0,0.9-0.1,1.3-0.3c0.3-0.1,0.5-0.4,0.5-0.7
				c0-0.2-0.1-0.4-0.3-0.5c-0.3-0.1-0.6-0.1-0.9-0.1h-0.8c-0.3,0-0.5,0-0.7,0c-0.1,0-0.3,0-0.4-0.1
				C182.9,39.3,182.7,39.6,182.7,39.9L182.7,39.9z M175.2,31.2h1.9l0.2,1.4h0.1c0.2-0.5,0.6-0.9,1-1.2c0.4-0.2,0.8-0.4,1.2-0.4
				c0.2,0,0.4,0,0.5,0c0.1,0,0.3,0.1,0.4,0.1l-0.4,2c-0.1,0-0.3-0.1-0.4-0.1c-0.1,0-0.3,0-0.4,0c-0.3,0-0.6,0.1-0.9,0.3
				c-0.4,0.3-0.6,0.7-0.8,1.1v4.5h-2.3V31.2z M166.3,31.2h2.3v4.5c0,0.4,0,0.8,0.2,1.2c0.2,0.2,0.5,0.3,0.7,0.3
				c0.3,0,0.5-0.1,0.7-0.2c0.2-0.2,0.5-0.4,0.6-0.7v-5.1h2.3v7.7h-1.9l-0.2-1.1h0c-0.3,0.4-0.7,0.7-1.1,0.9
				c-0.4,0.2-0.9,0.3-1.4,0.3c-0.7,0.1-1.4-0.3-1.8-0.8c-0.4-0.7-0.6-1.5-0.6-2.3L166.3,31.2z M158.6,36.1c0.4,0.3,0.8,0.6,1.2,0.8
				c0.4,0.2,0.9,0.3,1.3,0.3c0.4,0,0.7-0.1,1.1-0.3c0.2-0.2,0.4-0.4,0.4-0.7c0-0.1,0-0.3-0.1-0.4c-0.1-0.1-0.2-0.2-0.3-0.3
				c-0.1-0.1-0.3-0.2-0.5-0.2l-0.6-0.3l-1.3-0.6c-0.3-0.1-0.5-0.2-0.8-0.4c-0.2-0.2-0.5-0.4-0.7-0.6c-0.2-0.2-0.4-0.5-0.5-0.8
				c-0.1-0.3-0.2-0.7-0.2-1c0-0.4,0.1-0.8,0.3-1.2c0.2-0.4,0.4-0.7,0.7-1c0.3-0.3,0.7-0.5,1.1-0.6c0.5-0.2,1-0.2,1.5-0.2
				c0.6,0,1.2,0.1,1.8,0.3c0.6,0.2,1.1,0.6,1.5,1l-1.2,1.4c-0.3-0.2-0.6-0.4-1-0.6c-0.4-0.1-0.7-0.2-1.1-0.2c-0.3,0-0.7,0.1-0.9,0.2
				c-0.2,0.1-0.4,0.4-0.4,0.7c0,0.1,0,0.3,0.1,0.4c0.1,0.1,0.2,0.2,0.3,0.3c0.2,0.1,0.3,0.2,0.5,0.2l0.6,0.3l1.3,0.5
				c0.6,0.2,1.1,0.6,1.5,1c0.4,0.5,0.6,1.1,0.5,1.7c0,0.8-0.4,1.7-1,2.2c-0.4,0.3-0.8,0.5-1.2,0.7c-0.5,0.2-1.1,0.3-1.6,0.3
				c-0.7,0-1.4-0.1-2-0.4c-0.7-0.2-1.3-0.6-1.8-1.1L158.6,36.1z M151,34.3c0-0.4-0.1-0.8-0.3-1.1c-0.2-0.3-0.6-0.5-1-0.4
				c-0.4,0-0.7,0.1-1,0.4c-0.3,0.3-0.5,0.7-0.5,1.1H151z M146,35.1c0-0.6,0.1-1.2,0.3-1.7c0.2-0.5,0.5-0.9,0.8-1.3
				c0.3-0.3,0.7-0.6,1.2-0.8c0.4-0.2,0.9-0.3,1.4-0.3c0.5,0,1,0.1,1.4,0.3c0.4,0.2,0.8,0.4,1,0.8c0.3,0.3,0.5,0.7,0.6,1.2
				c0.1,0.5,0.2,1,0.2,1.5c0,0.2,0,0.4,0,0.6c0,0.2,0,0.3-0.1,0.4h-4.6c0.1,0.5,0.3,1,0.7,1.3c0.4,0.3,0.8,0.4,1.3,0.4
				c0.6,0,1.2-0.2,1.7-0.5l0.8,1.4c-0.4,0.3-0.8,0.5-1.3,0.6c-0.5,0.2-0.9,0.2-1.4,0.2c-0.5,0-1-0.1-1.5-0.3
				c-0.5-0.2-0.9-0.4-1.2-0.8c-0.4-0.4-0.6-0.8-0.8-1.3C146.1,36.2,146,35.7,146,35.1L146,35.1z M142,28h2.3v8.6
				c0,0.2,0,0.4,0.1,0.5c0.1,0.1,0.2,0.1,0.3,0.1h0.1c0.1,0,0.1,0,0.1,0l0.3,1.7c-0.2,0.1-0.3,0.1-0.5,0.1c-0.2,0-0.5,0.1-0.7,0.1
				c-0.3,0-0.7-0.1-1-0.2c-0.3-0.1-0.5-0.3-0.6-0.5c-0.2-0.2-0.3-0.5-0.4-0.8c-0.1-0.4-0.1-0.7-0.1-1.1L142,28z M133.4,28h2.2v6.3
				h0.1l2.4-3.1h2.5l-2.7,3.2l2.9,4.5h-2.5l-1.7-3l-1,1.1v1.9h-2.2V28z M124.5,31.2h1.9l0.2,1h0.1c0.3-0.3,0.7-0.6,1.1-0.8
				c0.4-0.2,0.9-0.4,1.4-0.4c0.7-0.1,1.4,0.3,1.8,0.8c0.4,0.7,0.6,1.5,0.6,2.3v4.8h-2.3v-4.5c0-0.4,0-0.8-0.2-1.2
				c-0.2-0.2-0.4-0.3-0.7-0.3c-0.3,0-0.5,0.1-0.7,0.2c-0.2,0.2-0.5,0.3-0.7,0.6v5.2h-2.3V31.2z M120.6,36.5h-3.1l-0.6,2.4h-2.3
				l3.2-10.2h2.8l3.2,10.2h-2.4L120.6,36.5z M120.1,34.7l-0.2-0.9l-0.4-1.6l-0.4-1.7H119l-0.4,1.7l-0.4,1.6l-0.2,0.9H120.1z
				 M105.4,35c0,0.6,0.1,1.2,0.4,1.7c0.2,0.3,0.6,0.5,1,0.5c0.2,0,0.5-0.1,0.7-0.2c0.2-0.1,0.4-0.3,0.6-0.5v-3.2
				c-0.2-0.2-0.4-0.3-0.6-0.4c-0.2-0.1-0.4-0.1-0.6-0.1c-0.4,0-0.7,0.2-1,0.5C105.5,33.9,105.3,34.5,105.4,35L105.4,35z M103,35.1
				c0-0.6,0.1-1.2,0.3-1.7c0.2-0.5,0.4-0.9,0.7-1.3c0.3-0.3,0.6-0.6,1-0.8c0.4-0.2,0.8-0.3,1.2-0.3c0.4,0,0.7,0.1,1.1,0.2
				c0.3,0.2,0.6,0.4,0.8,0.6l-0.1-1.2V28h2.3v10.9h-1.9l-0.2-0.8h-0.1c-0.3,0.3-0.6,0.5-0.9,0.7c-0.3,0.2-0.7,0.3-1.1,0.3
				c-0.4,0-0.9-0.1-1.3-0.3c-0.4-0.2-0.7-0.5-1-0.8c-0.3-0.4-0.5-0.8-0.6-1.3C103.1,36.2,103,35.6,103,35.1L103,35.1z M94.5,31.2
				h1.9l0.2,1h0.1c0.3-0.3,0.7-0.6,1.1-0.8c0.4-0.2,0.9-0.4,1.4-0.4c0.7-0.1,1.4,0.3,1.8,0.8c0.4,0.7,0.6,1.5,0.6,2.3v4.8h-2.3v-4.5
				c0-0.4,0-0.8-0.2-1.2c-0.2-0.2-0.4-0.3-0.7-0.3c-0.3,0-0.5,0.1-0.7,0.2c-0.2,0.2-0.5,0.3-0.7,0.6v5.2h-2.3V31.2z M88.1,36.6
				c0,0.2,0.1,0.4,0.2,0.6c0.2,0.1,0.4,0.2,0.6,0.2c0.2,0,0.5-0.1,0.7-0.2c0.2-0.1,0.4-0.3,0.6-0.5v-1.4c-0.6,0-1.2,0.2-1.7,0.5
				C88.3,36,88.1,36.3,88.1,36.6L88.1,36.6z M85.9,36.8c0-0.8,0.4-1.5,1-1.9c1-0.6,2.2-0.9,3.3-0.9c0-0.3-0.1-0.6-0.3-0.8
				c-0.2-0.2-0.6-0.3-0.9-0.3c-0.3,0-0.7,0.1-1,0.2c-0.4,0.1-0.7,0.3-1.1,0.5L86.2,32c0.5-0.3,1-0.5,1.6-0.7
				c0.6-0.2,1.1-0.3,1.7-0.3c0.8-0.1,1.7,0.3,2.3,0.8c0.6,0.8,0.9,1.7,0.8,2.6v4.4h-1.9l-0.2-0.8h0c-0.3,0.3-0.7,0.5-1.1,0.7
				c-0.4,0.2-0.8,0.3-1.2,0.3c-0.3,0-0.6-0.1-1-0.2c-0.3-0.1-0.5-0.3-0.7-0.5c-0.2-0.2-0.4-0.5-0.5-0.7C86,37.4,85.9,37.1,85.9,36.8
				L85.9,36.8z M77.3,33h-1.1v-1.7l1.2-0.1l0.3-2.1h1.9v2.1h1.9V33h-1.9v3.1c0,0.3,0.1,0.7,0.3,0.9c0.2,0.2,0.5,0.3,0.7,0.3
				c0.1,0,0.3,0,0.4,0c0.1,0,0.2-0.1,0.4-0.1l0.4,1.7c-0.2,0.1-0.5,0.1-0.7,0.2c-0.3,0.1-0.7,0.1-1,0.1c-0.4,0-0.8-0.1-1.2-0.2
				c-0.3-0.1-0.6-0.3-0.8-0.6c-0.2-0.3-0.4-0.6-0.5-0.9c-0.1-0.4-0.2-0.8-0.1-1.2L77.3,33z M70.2,35.1c0,0.6,0.1,1.1,0.4,1.6
				c0.2,0.4,0.6,0.6,1.1,0.6s0.8-0.2,1.1-0.6c0.5-1,0.5-2.2,0-3.2c-0.2-0.4-0.6-0.6-1.1-0.6c-0.4,0-0.8,0.2-1.1,0.6
				C70.3,34,70.2,34.5,70.2,35.1z M67.9,35.1c0-0.6,0.1-1.2,0.3-1.7c0.2-0.5,0.5-0.9,0.8-1.3c0.3-0.3,0.8-0.6,1.2-0.8
				c0.5-0.2,0.9-0.3,1.4-0.3c0.5,0,1,0.1,1.4,0.3c0.4,0.2,0.9,0.4,1.2,0.8c0.4,0.4,0.6,0.8,0.8,1.3c0.4,1.1,0.4,2.3,0,3.4
				c-0.2,0.5-0.5,0.9-0.8,1.3c-0.3,0.3-0.8,0.6-1.2,0.8c-0.4,0.2-0.9,0.3-1.4,0.3c-0.5,0-1-0.1-1.4-0.3c-0.5-0.2-0.9-0.4-1.2-0.8
				c-0.4-0.4-0.6-0.8-0.8-1.3C68,36.2,67.9,35.7,67.9,35.1L67.9,35.1z M61.6,35.1c0,0.6,0.1,1.1,0.4,1.6c0.2,0.4,0.6,0.6,1.1,0.6
				s0.8-0.2,1.1-0.6c0.5-1,0.5-2.2,0-3.2c-0.2-0.4-0.6-0.6-1.1-0.6c-0.4,0-0.8,0.2-1.1,0.6C61.7,34,61.6,34.5,61.6,35.1z M59.2,35.1
				c0-0.6,0.1-1.2,0.3-1.7c0.2-0.5,0.5-0.9,0.8-1.3c0.3-0.3,0.8-0.6,1.2-0.8c0.5-0.2,0.9-0.3,1.4-0.3c0.5,0,1,0.1,1.4,0.3
				c0.4,0.2,0.9,0.4,1.2,0.8c0.4,0.4,0.6,0.8,0.8,1.3c0.4,1.1,0.4,2.3,0,3.4c-0.2,0.5-0.5,0.9-0.8,1.3c-0.3,0.3-0.8,0.6-1.2,0.8
				C64,39,63.5,39.1,63,39.1c-0.5,0-1-0.1-1.4-0.3c-0.5-0.2-0.9-0.4-1.2-0.8c-0.4-0.4-0.6-0.8-0.8-1.3
				C59.3,36.2,59.2,35.7,59.2,35.1z M52,28.8h6.4v1.9h-4.1v2.4h3.5V35h-3.5v3.9H52V28.8z"/>
			<path id="Shape_2_" class="st0" d="M187.1,13.7c-0.3-0.1-0.5-0.1-0.8-0.2c-0.2,0-0.5,0.1-0.7,0.3c-0.2,0.2-0.3,0.5-0.2,0.8v0.5
				h1.4v1.8h-1.4v5.9h-2.3v-5.9h-1v-1.7l1-0.1v-0.4c0-0.4,0-0.8,0.1-1.2c0.1-0.3,0.3-0.7,0.5-1c0.2-0.3,0.5-0.5,0.9-0.6
				c0.4-0.2,0.9-0.2,1.3-0.2c0.3,0,0.6,0,0.9,0.1c0.2,0.1,0.4,0.1,0.7,0.2 M176,18.9c0,0.6,0.1,1.1,0.4,1.6c0.2,0.4,0.6,0.6,1.1,0.6
				s0.8-0.2,1.1-0.6c0.3-0.5,0.4-1,0.4-1.6c0-0.6-0.1-1.1-0.4-1.6c-0.2-0.4-0.6-0.6-1.1-0.6s-0.8,0.2-1.1,0.6
				C176.1,17.8,176,18.4,176,18.9L176,18.9z M173.7,18.9c0-0.6,0.1-1.2,0.3-1.7c0.2-0.5,0.5-0.9,0.8-1.3c0.3-0.3,0.8-0.6,1.2-0.8
				c0.5-0.2,0.9-0.3,1.4-0.3c0.5,0,1,0.1,1.4,0.3c0.4,0.2,0.9,0.4,1.2,0.8c0.4,0.4,0.6,0.8,0.8,1.3c0.4,1.1,0.4,2.3,0,3.4
				c-0.2,0.5-0.5,0.9-0.8,1.3c-0.3,0.3-0.8,0.6-1.2,0.8c-0.4,0.2-0.9,0.3-1.4,0.3c-0.5,0-1-0.1-1.4-0.3c-0.5-0.2-0.9-0.4-1.2-0.8
				c-0.4-0.4-0.6-0.8-0.8-1.3C173.8,20.1,173.7,19.5,173.7,18.9L173.7,18.9z M167.4,18.1c0-0.4-0.1-0.8-0.3-1.1
				c-0.2-0.3-0.6-0.5-1-0.4c-0.4,0-0.7,0.1-1,0.4c-0.3,0.3-0.5,0.7-0.5,1.1H167.4z M162.4,18.9c0-0.6,0.1-1.2,0.3-1.7
				c0.2-0.5,0.5-0.9,0.8-1.3c0.3-0.3,0.7-0.6,1.2-0.8c0.4-0.2,0.9-0.3,1.4-0.3c0.5,0,1,0.1,1.4,0.3c0.4,0.2,0.7,0.4,1,0.8
				c0.3,0.3,0.5,0.7,0.6,1.2c0.1,0.5,0.2,1,0.2,1.5c0,0.2,0,0.4,0,0.6c0,0.2,0,0.3-0.1,0.4h-4.6c0.1,0.5,0.3,1,0.7,1.3
				c0.4,0.3,0.8,0.4,1.3,0.4c0.6,0,1.2-0.2,1.7-0.5l0.8,1.4c-0.4,0.3-0.8,0.5-1.3,0.6c-0.5,0.2-0.9,0.2-1.4,0.2
				c-0.5,0-1-0.1-1.5-0.3c-0.5-0.2-0.9-0.4-1.2-0.8c-0.4-0.4-0.6-0.8-0.8-1.3C162.5,20.1,162.4,19.5,162.4,18.9L162.4,18.9z
				 M157.7,19c0.3,0,0.6-0.1,0.8-0.3c0.2-0.3,0.3-0.6,0.3-1c0-0.3-0.1-0.7-0.3-0.9c-0.2-0.2-0.5-0.3-0.8-0.3c-0.3,0-0.6,0.1-0.8,0.3
				c-0.2,0.3-0.3,0.6-0.3,0.9c0,0.4,0.1,0.7,0.3,1C157.2,18.9,157.4,19,157.7,19L157.7,19z M154.3,24.1c0-0.7,0.5-1.3,1.1-1.6v-0.1
				c-0.2-0.1-0.4-0.3-0.5-0.5c-0.3-0.5-0.3-1.1,0-1.6c0.2-0.3,0.4-0.5,0.6-0.6v-0.1c-0.3-0.2-0.5-0.5-0.7-0.8
				c-0.2-0.4-0.3-0.8-0.3-1.2c0-0.4,0.1-0.8,0.3-1.2c0.2-0.3,0.4-0.6,0.7-0.9c0.3-0.2,0.7-0.4,1-0.5c0.4-0.1,0.8-0.2,1.2-0.2
				c0.4,0,0.8,0.1,1.2,0.2h2.8v1.7h-1.2c0.1,0.1,0.1,0.3,0.2,0.4c0,0.2,0.1,0.4,0.1,0.6c0,0.4-0.1,0.8-0.2,1.2
				c-0.1,0.3-0.4,0.6-0.6,0.8c-0.3,0.2-0.6,0.4-1,0.5c-0.4,0.1-0.8,0.2-1.2,0.2c-0.3,0-0.6-0.1-0.9-0.2c-0.1,0.1-0.2,0.2-0.2,0.2
				c0,0.1-0.1,0.2-0.1,0.3c0,0.2,0.1,0.4,0.3,0.4c0.3,0.1,0.6,0.2,0.9,0.1h1.2c0.8,0,1.5,0.1,2.2,0.5c0.5,0.3,0.8,0.9,0.8,1.5
				c0,0.4-0.1,0.8-0.3,1.1c-0.2,0.4-0.5,0.7-0.9,0.9c-0.4,0.3-0.9,0.5-1.4,0.6c-0.6,0.1-1.2,0.2-1.8,0.2c-0.4,0-0.9,0-1.3-0.1
				c-0.4-0.1-0.7-0.2-1-0.4c-0.3-0.1-0.5-0.3-0.7-0.6C154.4,24.7,154.3,24.4,154.3,24.1L154.3,24.1z M156.2,23.8
				c0,0.3,0.2,0.6,0.5,0.7c0.4,0.2,0.8,0.2,1.2,0.2c0.4,0,0.9-0.1,1.3-0.3c0.3-0.1,0.5-0.4,0.5-0.7c0-0.2-0.1-0.4-0.3-0.5
				c-0.3-0.1-0.6-0.1-0.9-0.1h-0.8c-0.3,0-0.5,0-0.7,0c-0.1,0-0.3,0-0.4-0.1C156.4,23.2,156.2,23.5,156.2,23.8L156.2,23.8z
				 M151.4,18.1c0-0.4-0.1-0.8-0.3-1.1c-0.2-0.3-0.6-0.5-1-0.4c-0.4,0-0.7,0.1-1,0.4c-0.3,0.3-0.5,0.7-0.5,1.1H151.4z M146.4,18.9
				c0-0.6,0.1-1.2,0.3-1.7c0.2-0.5,0.5-0.9,0.8-1.3c0.3-0.3,0.7-0.6,1.2-0.8c0.4-0.2,0.9-0.3,1.4-0.3c0.5,0,1,0.1,1.4,0.3
				c0.4,0.2,0.8,0.4,1,0.8c0.3,0.3,0.5,0.7,0.6,1.2c0.1,0.5,0.2,1,0.2,1.5c0,0.2,0,0.4,0,0.6c0,0.2,0,0.3-0.1,0.4h-4.6
				c0.1,0.5,0.3,1,0.7,1.3c0.4,0.3,0.8,0.4,1.3,0.4c0.6,0,1.2-0.2,1.7-0.5l0.8,1.4c-0.4,0.3-0.8,0.5-1.3,0.6
				c-0.5,0.2-0.9,0.2-1.4,0.2c-0.5,0-1-0.1-1.5-0.3c-0.5-0.2-0.9-0.4-1.2-0.8c-0.4-0.4-0.6-0.8-0.8-1.3
				C146.5,20.1,146.4,19.5,146.4,18.9L146.4,18.9z M142.4,11.9h2.3v8.6c0,0.2,0,0.4,0.1,0.5c0.1,0.1,0.2,0.1,0.3,0.1h0.1
				c0.1,0,0.1,0,0.1,0l0.3,1.7c-0.2,0.1-0.3,0.1-0.5,0.1c-0.2,0-0.5,0.1-0.7,0.1c-0.3,0-0.7-0.1-1-0.2c-0.3-0.1-0.5-0.3-0.6-0.5
				c-0.2-0.2-0.3-0.5-0.4-0.8c-0.1-0.4-0.1-0.7-0.1-1.1L142.4,11.9z M138,11.9h2.3v8.6c0,0.2,0,0.4,0.1,0.5c0.1,0.1,0.2,0.1,0.3,0.1
				h0.1c0.1,0,0.1,0,0.1,0l0.3,1.7c-0.2,0.1-0.3,0.1-0.5,0.1c-0.2,0-0.5,0.1-0.7,0.1c-0.3,0-0.7-0.1-1-0.2c-0.3-0.1-0.5-0.3-0.6-0.5
				c-0.2-0.2-0.3-0.5-0.4-0.8c-0.1-0.4-0.1-0.7-0.1-1.1L138,11.9z M131.2,18.9c0,0.6,0.1,1.1,0.4,1.6c0.2,0.4,0.6,0.6,1.1,0.6
				s0.8-0.2,1.1-0.6c0.3-0.5,0.4-1,0.4-1.6c0-0.6-0.1-1.1-0.4-1.6c-0.2-0.4-0.6-0.6-1.1-0.6c-0.4,0-0.8,0.2-1.1,0.6
				C131.3,17.8,131.2,18.4,131.2,18.9L131.2,18.9z M128.9,18.9c0-0.6,0.1-1.2,0.3-1.7c0.2-0.5,0.5-0.9,0.8-1.3
				c0.3-0.3,0.8-0.6,1.2-0.8c0.5-0.2,0.9-0.3,1.4-0.3c0.5,0,1,0.1,1.4,0.3c0.4,0.2,0.9,0.4,1.2,0.8c0.4,0.4,0.6,0.8,0.8,1.3
				c0.4,1.1,0.4,2.3,0,3.4c-0.2,0.5-0.5,0.9-0.8,1.3c-0.3,0.3-0.8,0.6-1.2,0.8c-0.4,0.2-0.9,0.3-1.4,0.3c-0.5,0-1-0.1-1.4-0.3
				c-0.5-0.2-0.9-0.4-1.2-0.8c-0.4-0.4-0.6-0.8-0.8-1.3C129,20.1,128.9,19.5,128.9,18.9L128.9,18.9z M120,17.8
				c0-0.8,0.1-1.5,0.4-2.3c0.2-0.6,0.6-1.2,1.1-1.7c0.4-0.5,1-0.8,1.5-1c0.6-0.2,1.2-0.4,1.9-0.4c0.6,0,1.2,0.1,1.7,0.4
				c0.5,0.2,0.9,0.6,1.3,0.9l-1.3,1.4c-0.2-0.2-0.5-0.4-0.8-0.6c-0.3-0.1-0.6-0.2-0.9-0.2c-0.3,0-0.7,0.1-1,0.2
				c-0.3,0.2-0.6,0.4-0.8,0.6c-0.2,0.3-0.4,0.7-0.5,1c-0.1,0.4-0.2,0.9-0.2,1.4c-0.1,0.9,0.2,1.7,0.7,2.4c0.4,0.6,1.1,0.9,1.8,0.9
				c0.4,0,0.8-0.1,1.1-0.2c0.3-0.2,0.6-0.4,0.8-0.7l1.3,1.4c-0.8,1-2,1.5-3.2,1.5c-0.6,0-1.3-0.1-1.9-0.3c-0.6-0.2-1.1-0.6-1.5-1
				c-0.5-0.5-0.8-1-1-1.6C120.1,19.3,119.9,18.6,120,17.8L120,17.8z M108.1,15.1h1.9l0.2,1h0.1c0.3-0.3,0.7-0.6,1.1-0.8
				c0.4-0.2,0.9-0.4,1.4-0.4c0.7-0.1,1.4,0.3,1.8,0.8c0.4,0.7,0.6,1.5,0.6,2.3v4.8h-2.3v-4.5c0-0.4,0-0.8-0.2-1.2
				c-0.2-0.2-0.4-0.3-0.7-0.3c-0.3,0-0.5,0.1-0.7,0.2c-0.2,0.2-0.5,0.3-0.7,0.6v5.2h-2.3V15.1z M101.7,20.5c0,0.2,0.1,0.4,0.2,0.6
				c0.2,0.1,0.4,0.2,0.6,0.2c0.2,0,0.5-0.1,0.7-0.2c0.2-0.1,0.4-0.3,0.6-0.5v-1.4c-0.6,0-1.2,0.2-1.7,0.5
				C101.9,19.9,101.7,20.2,101.7,20.5L101.7,20.5z M99.5,20.7c0-0.8,0.4-1.5,1-1.9c1-0.6,2.2-0.9,3.3-0.9c0-0.3-0.1-0.6-0.3-0.8
				c-0.2-0.2-0.6-0.3-0.9-0.3c-0.3,0-0.7,0.1-1,0.2c-0.4,0.1-0.7,0.3-1.1,0.5l-0.8-1.5c0.5-0.3,1-0.5,1.6-0.7
				c0.6-0.2,1.1-0.3,1.7-0.3c0.8-0.1,1.7,0.3,2.3,0.8c0.6,0.8,0.9,1.7,0.8,2.6v4.4h-1.9l-0.2-0.8h0c-0.3,0.3-0.7,0.5-1.1,0.7
				c-0.4,0.2-0.8,0.3-1.2,0.3c-0.3,0-0.6-0.1-1-0.2c-0.3-0.1-0.5-0.3-0.7-0.5c-0.2-0.2-0.4-0.5-0.5-0.7C99.6,21.3,99.5,21,99.5,20.7
				L99.5,20.7z M92.2,18.9c0-0.6,0.1-1.2,0.3-1.7c0.2-0.5,0.5-0.9,0.9-1.3c0.4-0.3,0.8-0.6,1.3-0.8c0.5-0.2,1-0.3,1.5-0.3
				c0.4,0,0.9,0.1,1.3,0.2c0.4,0.1,0.7,0.4,1,0.6l-1,1.4c-0.3-0.3-0.7-0.4-1.1-0.5c-0.5,0-1,0.2-1.3,0.6c-0.3,0.5-0.5,1-0.5,1.6
				c0,0.6,0.1,1.1,0.5,1.6c0.3,0.4,0.8,0.6,1.2,0.6c0.3,0,0.5-0.1,0.8-0.2c0.2-0.1,0.4-0.2,0.6-0.4l0.9,1.4
				c-0.4,0.3-0.8,0.6-1.2,0.7c-0.9,0.3-1.9,0.3-2.8,0c-0.5-0.2-0.9-0.4-1.2-0.8c-0.4-0.4-0.6-0.8-0.8-1.3
				C92.3,20.1,92.2,19.5,92.2,18.9L92.2,18.9z M88.4,15.1h2.3v7.7h-2.3V15.1z M89.5,13.9c-0.3,0-0.7-0.1-1-0.3
				c-0.2-0.2-0.4-0.5-0.4-0.9c0-0.3,0.1-0.6,0.4-0.9c0.6-0.4,1.3-0.4,1.9,0c0.2,0.2,0.4,0.5,0.4,0.9c0,0.3-0.1,0.6-0.4,0.9
				C90.2,13.8,89.9,14,89.5,13.9L89.5,13.9z M82.2,15.1H84l0.2,1.4h0.1c0.2-0.5,0.6-0.9,1-1.2c0.4-0.2,0.8-0.4,1.2-0.4
				c0.2,0,0.4,0,0.5,0c0.1,0,0.3,0.1,0.4,0.1L87,17c-0.1,0-0.3-0.1-0.4-0.1c-0.1,0-0.3,0-0.4,0c-0.3,0-0.6,0.1-0.9,0.3
				c-0.4,0.3-0.6,0.7-0.8,1.1v4.5h-2.3V15.1z M78.6,18.1c0-0.4-0.1-0.8-0.3-1.1c-0.2-0.3-0.6-0.5-1-0.4c-0.4,0-0.7,0.1-1,0.4
				c-0.3,0.3-0.5,0.7-0.5,1.1H78.6z M73.6,18.9c0-0.6,0.1-1.2,0.3-1.7c0.2-0.5,0.5-0.9,0.8-1.3c0.3-0.3,0.7-0.6,1.2-0.8
				c0.4-0.2,0.9-0.3,1.4-0.3c0.5,0,1,0.1,1.4,0.3c0.4,0.2,0.7,0.4,1,0.8c0.3,0.3,0.5,0.7,0.6,1.2c0.1,0.5,0.2,1,0.2,1.5
				c0,0.2,0,0.4,0,0.6c0,0.2,0,0.3-0.1,0.4h-4.6c0.1,0.5,0.3,1,0.7,1.3c0.4,0.3,0.8,0.4,1.3,0.4c0.6,0,1.2-0.2,1.7-0.5l0.8,1.4
				c-0.4,0.3-0.8,0.5-1.3,0.6C78.5,22.9,78,23,77.6,23c-0.5,0-1-0.1-1.5-0.3c-0.5-0.2-0.9-0.4-1.2-0.8c-0.4-0.4-0.6-0.8-0.8-1.3
				C73.7,20.1,73.6,19.5,73.6,18.9L73.6,18.9z M60.7,15.1h1.9l0.2,1h0.1c0.3-0.3,0.7-0.6,1-0.8c0.8-0.5,1.8-0.5,2.6,0
				c0.4,0.2,0.6,0.6,0.8,1c0.3-0.3,0.7-0.6,1.1-0.9c0.4-0.3,0.9-0.4,1.3-0.4c0.7-0.1,1.4,0.3,1.8,0.8c0.4,0.7,0.6,1.5,0.6,2.3v4.8
				h-2.3v-4.5c0-0.4,0-0.8-0.2-1.2c-0.2-0.2-0.4-0.3-0.7-0.3c-0.5,0.1-1,0.3-1.3,0.7v5.2h-2.3v-4.5c0-0.4,0-0.8-0.2-1.2
				c-0.2-0.2-0.4-0.3-0.7-0.3c-0.5,0.1-1,0.3-1.3,0.7v5.2h-2.3V15.1z M56.8,20.4h-3.1L53,22.8h-2.3l3.2-10.2h2.8l3.2,10.2h-2.4
				L56.8,20.4z M56.3,18.6l-0.2-0.9L55.7,16l-0.4-1.7h-0.1L54.8,16l-0.4,1.6l-0.2,0.9H56.3z"/>
		</g>
	</g>
</g>
</svg>
